<svg xmlns="http://www.w3.org/2000/svg" id="Layer_2" viewBox="0 0 258.82 83.21"><defs><style>.cls-1{fill-rule:evenodd;}</style></defs><g id="SvgjsSvg1001"><g id="SvgjsG1008"><path class="cls-1" d="m95.33.5c-10.13,2.31-14.96,8.9-14.96,20.42v3.76h13.87v-3.23c.01-8.3,3.71-11.67,12.05-10.97l3.25.27v-3.2c0-1.76.14-3.98.3-4.92.23-1.4.12-1.79-.6-2.07-1.84-.71-10.89-.75-13.92-.06M20.09,41.41v40.68h6.16c6.92,0,6.73.11,6.75-3.95,0-2.2.15-2.21,2.44-.14,9.7,8.77,26.88,6.09,34.23-5.32,5.76-8.95,6.14-26.82.78-37.12-6.37-12.25-24.34-15.75-34.97-6.8l-1.5,1.26-.13-14.51-.13-14.51-6.82-.13-6.82-.13v40.68M231.4,11.11c-.18.18-.33,3.31-.33,6.95v6.62h13.87v12.92h-13.93l.15,17.58c.14,16.67.2,17.69,1.15,19.73,3.56,7.66,12.13,9.97,24.71,6.65l1.79-.47v-9.66l-1.79.31c-11.87,2.06-12.06,1.77-12.07-18.72v-15.43s6.46,0,6.46,0h6.47l-.13-6.34-.13-6.34-6.33-.13-6.33-.13-.13-6.8-.13-6.8-6.49-.13c-3.57-.07-6.63.02-6.82.2m-93.14,13.34c-3.81.94-5.65,1.8-8.95,4.23l-2.93,2.16-.4-2.96-.4-2.96-6.34-.13-6.34-.13v57.44h13.87v-41.16l1.94-2.1c5.77-6.26,16.84-6.01,20.07.45l1.2,2.39.15,20.23.15,20.23,6.79-.13,6.79-.13v-20.81c0-22.23-.12-23.67-2.45-28.32-3.57-7.13-13.43-10.66-23.14-8.27m54.17,0c-25.27,5.49-30.22,43.87-7.13,55.25,11.8,5.82,27.83,3.88,36.08-4.36,3.11-3.1,3.19-2.6-1.08-6.42l-3.59-3.21-2.1,1.94c-10.7,9.87-26.72,5.34-29.69-8.39l-.33-1.55,20.25-.12,20.25-.13-.1-5.58c-.36-20.24-13.74-31.51-32.56-27.42M.33,24.99c-.18.18-.33,13.11-.33,28.73v28.4l6.82-.13,6.82-.13V24.92l-6.49-.13c-3.57-.07-6.63.02-6.82.2m94.25,0c-.18.18-.33,3.09-.33,6.46v6.13l-6.82.13-6.82.13-.12,22.13-.12,22.13h13.88v-44.49h12.94l-.13-6.34-.13-6.34-6.01-.13c-3.3-.07-6.16.02-6.34.2m-41.39,11.03c10.05,5.47,9.82,29.96-.32,35.19-5.09,2.62-12.33,1.39-16.39-2.78l-2.51-2.58v-24.57l1.21-1.59c4.01-5.26,12.07-6.91,18.01-3.67m151.94-.4c3.38,1.74,5.27,4.96,6.14,10.47l.32,2.03h-13.22c-15.1,0-14.06.38-12.25-4.48,3.11-8.31,11.54-11.87,19.01-8.03"></path></g></g></svg>